HIERARCHY
ROOT hip
{
  OFFSET 0 90.174 2.4664
  CHANNELS 6 Xposition Yposition Zposition Zrotation Xrotation Yrotation
  JOINT abdomen
  {
    OFFSET 0 -1.186 -1.5018
    CHANNELS 6 Xposition Yposition Zposition Zrotation Xrotation Yrotation
    JOINT abdomen2
    {
      OFFSET 0 9.964 0.2134
      CHANNELS 6 Xposition Yposition Zposition Zrotation Xrotation Yrotation
      JOINT chest
      {
        OFFSET 0 13.134 -3.2573
        CHANNELS 6 Xposition Yposition Zposition Zrotation Xrotation Yrotation
        JOINT neck
        {
          OFFSET 0 20.686 -1.6905
          CHANNELS 6 Xposition Yposition Zposition Zrotation Xrotation Yrotation
          JOINT head
          {
            OFFSET 0 7.238 -0.1237
            CHANNELS 6 Xposition Yposition Zposition Zrotation Xrotation Yrotation
            End Site
            {
              OFFSET 0 0 0
            }
          }
        }
        JOINT lCollar
        {
          OFFSET 1.7069 20.075 5.0056
          CHANNELS 6 Xposition Yposition Zposition Zrotation Xrotation Yrotation
          JOINT lShldr
          {
            OFFSET 13.6458 -0.047 -4.849
            CHANNELS 6 Xposition Yposition Zposition Zrotation Xrotation Yrotation
            JOINT lForeArm
            {
              OFFSET 28.3255 -0.9759 2.2888
              CHANNELS 6 Xposition Yposition Zposition Zrotation Xrotation Yrotation
              JOINT lHand
              {
                OFFSET 22.1583 -0.53 10.8316
                CHANNELS 6 Xposition Yposition Zposition Zrotation Xrotation Yrotation
                JOINT lThumb1
                {
                  OFFSET 0.786 0.112 2.5817
                  CHANNELS 6 Xposition Yposition Zposition Zrotation Xrotation Yrotation
                  JOINT lThumb2
                  {
                    OFFSET 0.3601 -0.878 4.2331
                    CHANNELS 6 Xposition Yposition Zposition Zrotation Xrotation Yrotation
                    JOINT lThumb2_End
                    {
                      OFFSET 1.8127 -1.216 2.2227
                      CHANNELS 6 Xposition Yposition Zposition Zrotation Xrotation Yrotation
                      End Site
                      {
                        OFFSET 0.0181 -0.0122 0.0222
                      }
                    }
                  }
                }
                JOINT lCarpal1
                {
                  OFFSET 0.9571 1.114 1.7695
                  CHANNELS 6 Xposition Yposition Zposition Zrotation Xrotation Yrotation
                  JOINT lIndex1
                  {
                    OFFSET 4.1246 0.487 4.1451
                    CHANNELS 6 Xposition Yposition Zposition Zrotation Xrotation Yrotation
                    JOINT lIndex2
                    {
                      OFFSET 3.4052 -1.454 2.7682
                      CHANNELS 6 Xposition Yposition Zposition Zrotation Xrotation Yrotation
                      JOINT lIndex2_End
                      {
                        OFFSET 1.4531 -1.795 1.2713
                        CHANNELS 6 Xposition Yposition Zposition Zrotation Xrotation Yrotation
                        End Site
                        {
                          OFFSET 0.0145 -0.0179 0.0127
                        }
                      }
                    }
                  }
                  JOINT lMid1
                  {
                    OFFSET 5.6954 0.21 2.1184
                    CHANNELS 6 Xposition Yposition Zposition Zrotation Xrotation Yrotation
                    JOINT lMid2
                    {
                      OFFSET 3.9766 -1.54 2.3863
                      CHANNELS 6 Xposition Yposition Zposition Zrotation Xrotation Yrotation
                      JOINT lMid2_End
                      {
                        OFFSET 1.4042 -1.926 1.125
                        CHANNELS 6 Xposition Yposition Zposition Zrotation Xrotation Yrotation
                        End Site
                        {
                          OFFSET 0.014 -0.0193 0.0113
                        }
                      }
                    }
                  }
                }
                JOINT lCarpal2
                {
                  OFFSET 2.0956 0.66 -0.3894
                  CHANNELS 6 Xposition Yposition Zposition Zrotation Xrotation Yrotation
                  JOINT lRing1
                  {
                    OFFSET 5.0395 -0.09 2.4971
                    CHANNELS 6 Xposition Yposition Zposition Zrotation Xrotation Yrotation
                    JOINT lRing2
                    {
                      OFFSET 3.7921 -1.552 1.4806
                      CHANNELS 6 Xposition Yposition Zposition Zrotation Xrotation Yrotation
                      JOINT lRing2_End
                      {
                        OFFSET 1.4655 -1.808 0.9609
                        CHANNELS 6 Xposition Yposition Zposition Zrotation Xrotation Yrotation
                        End Site
                        {
                          OFFSET 0.0147 -0.0181 0.0096
                        }
                      }
                    }
                  }
                  JOINT lPinky1
                  {
                    OFFSET 4.9141 -1.269 0.3591
                    CHANNELS 6 Xposition Yposition Zposition Zrotation Xrotation Yrotation
                    JOINT lPinky2
                    {
                      OFFSET 3.1477 -1.685 0.8462
                      CHANNELS 6 Xposition Yposition Zposition Zrotation Xrotation Yrotation
                      JOINT lPinky2_End
                      {
                        OFFSET 0.8055 -1.585 0.7955
                        CHANNELS 6 Xposition Yposition Zposition Zrotation Xrotation Yrotation
                        End Site
                        {
                          OFFSET 0.0081 -0.0158 0.008
                        }
                      }
                    }
                  }
                }
              }
            }
          }
        }
        JOINT rCollar
        {
          OFFSET -1.7069 20.075 5.0056
          CHANNELS 6 Xposition Yposition Zposition Zrotation Xrotation Yrotation
          JOINT rShldr
          {
            OFFSET -13.6458 -0.047 -4.849
            CHANNELS 6 Xposition Yposition Zposition Zrotation Xrotation Yrotation
            JOINT rForeArm
            {
              OFFSET -28.3255 -0.9759 2.2888
              CHANNELS 6 Xposition Yposition Zposition Zrotation Xrotation Yrotation
              JOINT rHand
              {
                OFFSET -22.1583 -0.53 10.8316
                CHANNELS 6 Xposition Yposition Zposition Zrotation Xrotation Yrotation
                JOINT rThumb1
                {
                  OFFSET -0.786 0.112 2.5817
                  CHANNELS 6 Xposition Yposition Zposition Zrotation Xrotation Yrotation
                  JOINT rThumb2
                  {
                    OFFSET -0.3601 -0.878 4.2331
                    CHANNELS 6 Xposition Yposition Zposition Zrotation Xrotation Yrotation
                    JOINT rThumb2_End
                    {
                      OFFSET -1.8127 -1.216 2.2227
                      CHANNELS 6 Xposition Yposition Zposition Zrotation Xrotation Yrotation
                      End Site
                      {
                        OFFSET -0.0181 -0.0122 0.0222
                      }
                    }
                  }
                }
                JOINT rCarpal1
                {
                  OFFSET -0.9571 1.114 1.7695
                  CHANNELS 6 Xposition Yposition Zposition Zrotation Xrotation Yrotation
                  JOINT rIndex1
                  {
                    OFFSET -4.1246 0.487 4.1451
                    CHANNELS 6 Xposition Yposition Zposition Zrotation Xrotation Yrotation
                    JOINT rIndex2
                    {
                      OFFSET -3.4052 -1.454 2.7682
                      CHANNELS 6 Xposition Yposition Zposition Zrotation Xrotation Yrotation
                      JOINT rIndex2_End
                      {
                        OFFSET -1.4531 -1.795 1.2713
                        CHANNELS 6 Xposition Yposition Zposition Zrotation Xrotation Yrotation
                        End Site
                        {
                          OFFSET -0.0145 -0.018 0.0127
                        }
                      }
                    }
                  }
                  JOINT rMid1
                  {
                    OFFSET -5.6954 0.21 2.1184
                    CHANNELS 6 Xposition Yposition Zposition Zrotation Xrotation Yrotation
                    JOINT rMid2
                    {
                      OFFSET -3.9766 -1.54 2.3863
                      CHANNELS 6 Xposition Yposition Zposition Zrotation Xrotation Yrotation
                      JOINT rMid2_End
                      {
                        OFFSET -1.4042 -1.926 1.125
                        CHANNELS 6 Xposition Yposition Zposition Zrotation Xrotation Yrotation
                        End Site
                        {
                          OFFSET -0.014 -0.0193 0.0113
                        }
                      }
                    }
                  }
                }
                JOINT rCarpal2
                {
                  OFFSET -2.0956 0.66 -0.3894
                  CHANNELS 6 Xposition Yposition Zposition Zrotation Xrotation Yrotation
                  JOINT rRing1
                  {
                    OFFSET -5.0395 -0.09 2.4971
                    CHANNELS 6 Xposition Yposition Zposition Zrotation Xrotation Yrotation
                    JOINT rRing2
                    {
                      OFFSET -3.7921 -1.552 1.4806
                      CHANNELS 6 Xposition Yposition Zposition Zrotation Xrotation Yrotation
                      JOINT rRing2_End
                      {
                        OFFSET -1.4655 -1.808 0.9609
                        CHANNELS 6 Xposition Yposition Zposition Zrotation Xrotation Yrotation
                        End Site
                        {
                          OFFSET -0.0147 -0.0181 0.0096
                        }
                      }
                    }
                  }
                  JOINT rPinky1
                  {
                    OFFSET -4.9141 -1.269 0.3592
                    CHANNELS 6 Xposition Yposition Zposition Zrotation Xrotation Yrotation
                    JOINT rPinky2
                    {
                      OFFSET -3.1477 -1.685 0.8462
                      CHANNELS 6 Xposition Yposition Zposition Zrotation Xrotation Yrotation
                      JOINT rPinky2_End
                      {
                        OFFSET -0.8055 -1.585 0.7955
                        CHANNELS 6 Xposition Yposition Zposition Zrotation Xrotation Yrotation
                        End Site
                        {
                          OFFSET -0.0081 -0.0158 0.008
                        }
                      }
                    }
                  }
                }
              }
            }
          }
        }
      }
    }
  }
  JOINT lThigh
  {
    OFFSET 8.367 -8.2066 0.5982
    CHANNELS 6 Xposition Yposition Zposition Zrotation Xrotation Yrotation
    JOINT lShin
    {
      OFFSET 2.1923 -43.463 -0.4932
      CHANNELS 6 Xposition Yposition Zposition Zrotation Xrotation Yrotation
      JOINT lFoot
      {
        OFFSET 0.7333 -45.8593 -2.6451
        CHANNELS 6 Xposition Yposition Zposition Zrotation Xrotation Yrotation
        End Site
        {
          OFFSET 2.6618 -4.2699 12.3931
        }
      }
    }
  }
  JOINT rThigh
  {
    OFFSET -8.367 -8.2066 0.5982
    CHANNELS 6 Xposition Yposition Zposition Zrotation Xrotation Yrotation
    JOINT rShin
    {
      OFFSET -2.1923 -43.463 -0.4931
      CHANNELS 6 Xposition Yposition Zposition Zrotation Xrotation Yrotation
      JOINT rFoot
      {
        OFFSET -0.7333 -45.8593 -2.6451
        CHANNELS 6 Xposition Yposition Zposition Zrotation Xrotation Yrotation
        End Site
        {
          OFFSET -2.6618 -4.2699 12.3931
        }
      }
    }
  }
}
MOTION
Frames:	4
Frame Time:	0.0333333
-0.215555 29.0461 55.6583 89.3125 -89.7452 -90.4204 0 -1.186 -1.5018 -0.267951 7.143 -0.194528 0 9.964 0.2134 -0.517346 14.2869 -0.359322 0 13.134 -3.2573 -0.517346 14.2868 -0.359323 2.22045e-016 20.686 -1.6905 -3.98676e-006 8.99172 1.55166e-007 2.22045e-016 7.238 -0.1237 2.48623e-007 -56.1063 5.34616e-007 1.7069 20.075 5.0056 29.5999 -35.7505 -0.970663 13.6458 -0.047 -4.849 -45.5136 -7.26335 -46.935 28.3255 -0.9759 2.2888 -96.1679 -33.9579 -127.237 22.1583 -0.53 10.8316 -39.7682 13.0968 -15.3796 0.786 0.112 2.5817 -2.73081e-006 -1.64538e-006 -8.94664e-007 0.3601 -0.878 4.2331 -4.3762e-006 1.08543e-006 -1.73003e-006 1.8127 -1.216 2.2227 -2.73081e-006 -1.64538e-006 -8.94664e-007 0.9571 1.114 1.7695 7.95139e-015 8.74653e-015 -6.36111e-015 4.1246 0.487 4.1451 -2.73081e-006 -1.64538e-006 -8.94664e-007 3.4052 -1.454 2.7682 -4.3762e-006 1.08543e-006 -1.73003e-006 1.4531 -1.795 1.2713 -2.73081e-006 -1.64538e-006 -8.94664e-007 5.6954 0.21 2.1184 -2.73081e-006 -1.64538e-006 -8.94664e-007 3.9766 -1.54 2.3863 -4.3762e-006 1.08543e-006 -1.73003e-006 1.4042 -1.926 1.125 -2.73081e-006 -1.64538e-006 -8.94664e-007 2.0956 0.66 -0.3894 7.95139e-015 8.74653e-015 -6.36111e-015 5.0395 -0.09 2.4971 -2.73081e-006 -1.64538e-006 -8.94664e-007 3.7921 -1.552 1.4806 -4.3762e-006 1.08543e-006 -1.73003e-006 1.4655 -1.808 0.9609 -2.73081e-006 -1.64538e-006 -8.94664e-007 4.9141 -1.269 0.3591 -2.73081e-006 -1.64538e-006 -8.94664e-007 3.1477 -1.685 0.8462 -4.3762e-006 1.08543e-006 -1.73003e-006 0.8055 -1.585 0.7955 -2.73081e-006 -1.64538e-006 -8.94664e-007 -1.7069 20.075 5.0056 -29.5804 -35.5947 0.084122 -13.6458 -0.047 -4.849 45.7265 -6.72791 47.7723 -28.3255 -0.9759 2.2888 97.0948 -35.7789 127.801 -22.1583 -0.53 10.8316 39.5015 12.8371 15.4874 -0.786 0.112 2.5817 -1.11319e-014 -4.77083e-015 6.36111e-015 -0.3601 -0.878 4.2331 -7.95139e-015 5.56597e-015 -0 -1.8127 -1.216 2.2227 -1.59028e-015 -5.56597e-015 -0 -0.9571 1.114 1.7695 -3.18055e-015 -1.59028e-015 -0 -4.1246 0.487 4.1451 4.77083e-015 -3.97569e-015 3.18055e-015 -3.4052 -1.454 2.7682 -1.11319e-014 -1.59028e-015 3.18055e-015 -1.4531 -1.795 1.2713 -7.95139e-015 1.59028e-015 3.18055e-015 -5.6954 0.21 2.1184 4.77083e-015 -3.97569e-015 3.18055e-015 -3.9766 -1.54 2.3863 -1.11319e-014 -1.59028e-015 3.18055e-015 -1.4042 -1.926 1.125 -7.95139e-015 1.59028e-015 3.18055e-015 -2.0956 0.66 -0.3894 -3.18055e-015 -1.59028e-015 -0 -5.0395 -0.09 2.4971 4.77083e-015 -3.97569e-015 3.18055e-015 -3.7921 -1.552 1.4806 -1.11319e-014 -1.59028e-015 3.18055e-015 -1.4655 -1.808 0.9609 -7.95139e-015 1.59028e-015 3.18055e-015 -4.9141 -1.269 0.3592 4.77083e-015 -3.97569e-015 3.18055e-015 -3.1477 -1.685 0.8462 -1.11319e-014 -1.59028e-015 3.18055e-015 -0.8055 -1.585 0.7955 -7.95139e-015 1.59028e-015 3.18055e-015 8.367 -8.2066 0.5982 79.4013 -62.0958 61.3725 2.1923 -43.463 -0.4932 -74.0355 72.9378 79.2449 0.7333 -45.8593 -2.6451 14.3165 44.5027 -1.27646 -8.367 -8.2066 0.5982 -90.4846 -59.8039 -70.2818 -2.1923 -43.463 -0.4931 73.5236 72.9589 -78.621 -0.7333 -45.8593 -2.6451 -14.2978 44.8646 1.38115 
-0.215555 29.0461 55.6583 89.3125 -89.7452 -90.4204 0 -1.186 -1.5018 -0.267951 7.143 -0.194528 0 9.964 0.2134 -0.517346 14.2869 -0.359322 0 13.134 -3.2573 -0.517346 14.2868 -0.359323 2.22045e-016 20.686 -1.6905 -4.33572e-006 8.99172 3.53531e-007 0 7.238 -0.1237 -2.53631e-007 -56.1063 1.41323e-008 1.7069 20.075 5.0056 29.5999 -35.7505 -0.970663 13.6458 -0.047 -4.849 -45.5136 -7.26335 -46.935 28.3255 -0.9759 2.2888 -96.1679 -33.9578 -127.237 22.1583 -0.53 10.8316 -39.7682 13.0968 -15.3796 0.786 0.112 2.5817 2.73081e-006 1.64538e-006 8.94664e-007 0.3601 -0.878 4.2331 1.64538e-006 -2.73081e-006 8.35361e-007 1.8127 -1.216 2.2227 1.36541e-006 8.22692e-007 4.47332e-007 0.9571 1.114 1.7695 1.76556e-031 1.59028e-015 -6.36111e-015 4.1246 0.487 4.1451 2.73081e-006 1.64538e-006 8.94664e-007 3.4052 -1.454 2.7682 1.64538e-006 -2.73081e-006 8.35361e-007 1.4531 -1.795 1.2713 1.36541e-006 8.22692e-007 4.47332e-007 5.6954 0.21 2.1184 2.73081e-006 1.64538e-006 8.94664e-007 3.9766 -1.54 2.3863 1.64538e-006 -2.73081e-006 8.35361e-007 1.4042 -1.926 1.125 1.36541e-006 8.22692e-007 4.47332e-007 2.0956 0.66 -0.3894 1.76556e-031 1.59028e-015 -6.36111e-015 5.0395 -0.09 2.4971 2.73081e-006 1.64538e-006 8.94664e-007 3.7921 -1.552 1.4806 1.64538e-006 -2.73081e-006 8.35361e-007 1.4655 -1.808 0.9609 1.36541e-006 8.22692e-007 4.47332e-007 4.9141 -1.269 0.3591 2.73081e-006 1.64538e-006 8.94664e-007 3.1477 -1.685 0.8462 1.64538e-006 -2.73081e-006 8.35361e-007 0.8055 -1.585 0.7955 1.36541e-006 8.22692e-007 4.47332e-007 -1.7069 20.075 5.0056 -29.5804 -35.5947 0.084122 -13.6458 -0.047 -4.849 45.7265 -6.7279 47.7723 -28.3255 -0.9759 2.2888 97.0948 -35.7789 127.801 -22.1583 -0.53 10.8316 39.5015 12.8371 15.4874 -0.786 0.112 2.5817 2.7669e-006 -1.54821e-006 9.13472e-007 -0.3601 -0.878 4.2331 3.09642e-006 5.53379e-006 1.76155e-006 -1.8127 -1.216 2.2227 2.7669e-006 -1.54821e-006 9.13472e-007 -0.9571 1.114 1.7695 4.77083e-015 -5.56597e-015 6.36111e-015 -4.1246 0.487 4.1451 2.7669e-006 -1.54821e-006 9.13472e-007 -3.4052 -1.454 2.7682 3.09642e-006 5.53379e-006 1.76155e-006 -1.4531 -1.795 1.2713 2.7669e-006 -1.54821e-006 9.13472e-007 -5.6954 0.21 2.1184 2.7669e-006 -1.54821e-006 9.13472e-007 -3.9766 -1.54 2.3863 3.09642e-006 5.53379e-006 1.76155e-006 -1.4042 -1.926 1.125 2.7669e-006 -1.54821e-006 9.13472e-007 -2.0956 0.66 -0.3894 4.77083e-015 -5.56597e-015 6.36111e-015 -5.0395 -0.09 2.4971 2.7669e-006 -1.54821e-006 9.13472e-007 -3.7921 -1.552 1.4806 3.09642e-006 5.53379e-006 1.76155e-006 -1.4655 -1.808 0.9609 2.7669e-006 -1.54821e-006 9.13472e-007 -4.9141 -1.269 0.3592 2.7669e-006 -1.54821e-006 9.13472e-007 -3.1477 -1.685 0.8462 3.09642e-006 5.53379e-006 1.76155e-006 -0.8055 -1.585 0.7955 2.7669e-006 -1.54821e-006 9.13472e-007 8.367 -8.2066 0.5982 79.4013 -62.0958 61.3725 2.1923 -43.463 -0.4932 -74.0355 72.9378 79.2449 0.7333 -45.8593 -2.6451 14.3165 44.5027 -1.27646 -8.367 -8.2066 0.5982 -90.4846 -59.8039 -70.2818 -2.1923 -43.463 -0.4931 73.5236 72.9589 -78.621 -0.7333 -45.8593 -2.6451 -14.2978 44.8646 1.38115 
-0.215555 29.0461 55.6583 89.3125 -89.7452 -90.4204 0 -1.186 -1.5018 -0.26899 7.16626 -0.194034 0 9.964 0.2134 -0.519469 14.3333 -0.3581 0 13.134 -3.2573 -0.519469 14.3333 -0.3581 0 20.686 -1.6905 -1.36374e-006 8.99163 -1.67768e-006 -2.22045e-016 7.238 -0.1237 8.54617e-007 -56.5727 7.0312e-007 1.7069 20.075 5.0056 29.615 -35.8906 -0.37669 13.6458 -0.047 -4.849 -45.7548 -6.8193 -47.1318 28.3255 -0.9759 2.2888 -95.5863 -33.6405 -127.064 22.1583 -0.53 10.8316 -39.511 12.8837 -15.2971 0.786 0.112 2.5817 -1.36545e-006 -8.22653e-007 -4.47187e-007 0.3601 -0.878 4.2331 -1.36545e-006 -8.22653e-007 -4.47187e-007 1.8127 -1.216 2.2227 -3.01076e-006 1.90825e-006 -1.28269e-006 0.9571 1.114 1.7695 -3.18055e-015 -7.95139e-016 -3.18055e-015 4.1246 0.487 4.1451 -1.36545e-006 -8.22653e-007 -4.47187e-007 3.4052 -1.454 2.7682 -1.36545e-006 -8.22653e-007 -4.47187e-007 1.4531 -1.795 1.2713 -3.01076e-006 1.90825e-006 -1.28269e-006 5.6954 0.21 2.1184 -1.36545e-006 -8.22653e-007 -4.47187e-007 3.9766 -1.54 2.3863 -1.36545e-006 -8.22653e-007 -4.47187e-007 1.4042 -1.926 1.125 -3.01076e-006 1.90825e-006 -1.28269e-006 2.0956 0.66 -0.3894 -3.18055e-015 -7.95139e-016 -3.18055e-015 5.0395 -0.09 2.4971 -1.36545e-006 -8.22653e-007 -4.47187e-007 3.7921 -1.552 1.4806 -1.36545e-006 -8.22653e-007 -4.47187e-007 1.4655 -1.808 0.9609 -3.01076e-006 1.90825e-006 -1.28269e-006 4.9141 -1.269 0.3591 -1.36545e-006 -8.22653e-007 -4.47187e-007 3.1477 -1.685 0.8462 -1.36545e-006 -8.22653e-007 -4.47187e-007 0.8055 -1.585 0.7955 -3.01076e-006 1.90825e-006 -1.28269e-006 -1.7069 20.075 5.0056 -29.7127 -35.7311 -0.590533 -13.6458 -0.047 -4.849 45.9775 -6.27613 47.9411 -28.3255 -0.9759 2.2888 96.5132 -35.4725 127.614 -22.1583 -0.53 10.8316 39.2114 12.5873 15.4753 -0.786 0.112 2.5817 1.54817e-006 2.76691e-006 8.80895e-007 -0.3601 -0.878 4.2331 2.76691e-006 -1.54817e-006 9.13389e-007 -1.8127 -1.216 2.2227 2.76691e-006 -1.54817e-006 9.13389e-007 -0.9571 1.114 1.7695 -1.59028e-015 2.38542e-015 -6.36111e-015 -4.1246 0.487 4.1451 1.54817e-006 2.76691e-006 8.80895e-007 -3.4052 -1.454 2.7682 2.76691e-006 -1.54817e-006 9.13389e-007 -1.4531 -1.795 1.2713 2.76691e-006 -1.54817e-006 9.13389e-007 -5.6954 0.21 2.1184 1.54817e-006 2.76691e-006 8.80895e-007 -3.9766 -1.54 2.3863 2.76691e-006 -1.54817e-006 9.13389e-007 -1.4042 -1.926 1.125 2.76691e-006 -1.54817e-006 9.13389e-007 -2.0956 0.66 -0.3894 -1.59028e-015 2.38542e-015 -6.36111e-015 -5.0395 -0.09 2.4971 1.54817e-006 2.76691e-006 8.80895e-007 -3.7921 -1.552 1.4806 2.76691e-006 -1.54817e-006 9.13389e-007 -1.4655 -1.808 0.9609 2.76691e-006 -1.54817e-006 9.13389e-007 -4.9141 -1.269 0.3592 1.54817e-006 2.76691e-006 8.80895e-007 -3.1477 -1.685 0.8462 2.76691e-006 -1.54817e-006 9.13389e-007 -0.8055 -1.585 0.7955 2.76691e-006 -1.54817e-006 9.13389e-007 8.367 -8.2066 0.5982 79.4013 -62.0958 61.3725 2.1923 -43.463 -0.4932 -74.0355 72.9378 79.2449 0.7333 -45.8593 -2.6451 14.3165 44.5027 -1.27646 -8.367 -8.2066 0.5982 -90.4846 -59.8039 -70.2818 -2.1923 -43.463 -0.4931 73.5236 72.9589 -78.621 -0.7333 -45.8593 -2.6451 -14.2978 44.8646 1.38115 
-0.215555 29.0461 55.6583 89.3125 -89.7452 -90.4204 0 -1.186 -1.5018 -0.26984 7.18527 -0.193622 0 9.964 0.2134 -0.521207 14.3714 -0.357085 2.22045e-016 13.134 -3.2573 -0.521207 14.3714 -0.357085 0 20.686 -1.6905 -9.69559e-007 8.99159 -8.71385e-008 0 7.238 -0.1237 1.63067e-007 -56.9543 5.00445e-007 1.7069 20.075 5.0056 29.6286 -36.0052 0.110281 13.6458 -0.047 -4.849 -45.951 -6.45502 -47.2911 28.3255 -0.9759 2.2888 -95.1127 -33.3796 -126.925 22.1583 -0.53 10.8316 -39.3004 12.7097 -15.2289 0.786 0.112 2.5817 6.36111e-015 -9.54166e-015 -6.36111e-015 0.3601 -0.878 4.2331 3.18055e-015 -2.38542e-015 3.18055e-015 1.8127 -1.216 2.2227 -2.73098e-006 -1.64525e-006 -8.94162e-007 0.9571 1.114 1.7695 1.59028e-015 -7.95139e-015 -3.18055e-015 4.1246 0.487 4.1451 4.77083e-015 8.74653e-015 9.54166e-015 3.4052 -1.454 2.7682 3.18055e-015 -5.56597e-015 -3.18055e-015 1.4531 -1.795 1.2713 -2.73098e-006 -1.64525e-006 -8.94162e-007 5.6954 0.21 2.1184 4.77083e-015 8.74653e-015 9.54166e-015 3.9766 -1.54 2.3863 3.18055e-015 -5.56597e-015 -3.18055e-015 1.4042 -1.926 1.125 -2.73098e-006 -1.64525e-006 -8.94162e-007 2.0956 0.66 -0.3894 1.59028e-015 -7.95139e-015 -3.18055e-015 5.0395 -0.09 2.4971 4.77083e-015 8.74653e-015 9.54166e-015 3.7921 -1.552 1.4806 3.18055e-015 -5.56597e-015 -3.18055e-015 1.4655 -1.808 0.9609 -2.73098e-006 -1.64525e-006 -8.94162e-007 4.9141 -1.269 0.3591 4.77083e-015 8.74653e-015 9.54166e-015 3.1477 -1.685 0.8462 3.18055e-015 -5.56597e-015 -3.18055e-015 0.8055 -1.585 0.7955 -2.73098e-006 -1.64525e-006 -8.94162e-007 -1.7069 20.075 5.0056 -29.8225 -35.842 -1.14389 -13.6458 -0.047 -4.849 46.1818 -5.90562 48.0775 -28.3255 -0.9759 2.2888 96.0398 -35.2204 127.465 -22.1583 -0.53 10.8316 38.9743 12.383 15.4644 -0.786 0.112 2.5817 2.76692e-006 -1.54814e-006 9.13328e-007 -0.3601 -0.878 4.2331 -1.59028e-015 3.18055e-015 -3.18055e-015 -1.8127 -1.216 2.2227 4.77083e-015 7.95139e-015 -0 -0.9571 1.114 1.7695 1.59028e-015 7.95139e-016 -3.18055e-015 -4.1246 0.487 4.1451 2.76692e-006 -1.54814e-006 9.13328e-007 -3.4052 -1.454 2.7682 3.18055e-015 -1.59028e-015 -3.18055e-015 -1.4531 -1.795 1.2713 -3.18055e-015 6.36111e-015 6.36111e-015 -5.6954 0.21 2.1184 2.76692e-006 -1.54814e-006 9.13328e-007 -3.9766 -1.54 2.3863 3.18055e-015 -1.59028e-015 -3.18055e-015 -1.4042 -1.926 1.125 -3.18055e-015 6.36111e-015 6.36111e-015 -2.0956 0.66 -0.3894 1.59028e-015 7.95139e-016 -3.18055e-015 -5.0395 -0.09 2.4971 2.76692e-006 -1.54814e-006 9.13328e-007 -3.7921 -1.552 1.4806 3.18055e-015 -1.59028e-015 -3.18055e-015 -1.4655 -1.808 0.9609 -3.18055e-015 6.36111e-015 6.36111e-015 -4.9141 -1.269 0.3592 2.76692e-006 -1.54814e-006 9.13328e-007 -3.1477 -1.685 0.8462 3.18055e-015 -1.59028e-015 -3.18055e-015 -0.8055 -1.585 0.7955 -3.18055e-015 6.36111e-015 6.36111e-015 8.367 -8.2066 0.5982 79.4013 -62.0958 61.3725 2.1923 -43.463 -0.4932 -74.0355 72.9378 79.2449 0.7333 -45.8593 -2.6451 14.3165 44.5027 -1.27646 -8.367 -8.2066 0.5982 -90.4846 -59.8039 -70.2818 -2.1923 -43.463 -0.4931 73.5236 72.9589 -78.621 -0.7333 -45.8593 -2.6451 -14.2978 44.8646 1.38115 
